<svg width="24" height="24" viewBox="0 0 24 24" fill="none" xmlns="http://www.w3.org/2000/svg">
<path d="M9.96263 1.25H11.0029C11.4172 1.25 11.7529 1.58579 11.7529 2C11.7529 2.41421 11.4172 2.75 11.0029 2.75H10.0062C8.34911 2.75 7.16481 2.75097 6.24738 2.8476C5.34326 2.94283 4.7851 3.12416 4.35035 3.42834C3.99169 3.67928 3.67976 3.99098 3.42865 4.34931C3.12436 4.78355 2.94295 5.34104 2.84767 6.24427C2.75098 7.16088 2.75 8.34416 2.75 10C2.75 11.6558 2.75098 12.8391 2.84767 13.7557C2.94295 14.659 3.12436 15.2164 3.42865 15.6507C3.67976 16.009 3.99169 16.3207 4.35035 16.5717C4.7851 16.8758 5.34326 17.0572 6.24738 17.1524C7.16481 17.249 8.34911 17.25 10.0062 17.25H14.0093C15.6664 17.25 16.8507 17.249 17.7681 17.1524C18.6722 17.0572 19.2304 16.8758 19.6652 16.5717C20.0238 16.3207 20.3358 16.009 20.5869 15.6507C21.0684 14.9635 21.2175 14.044 21.2504 12.9769C21.2631 12.5629 21.6091 12.2376 22.0231 12.2504C22.4371 12.2631 22.7624 12.6091 22.7496 13.0231C22.7151 14.1442 22.5627 15.4449 21.8153 16.5115C21.4637 17.0132 21.0271 17.4495 20.5251 17.8007C19.7967 18.3103 18.9528 18.5359 17.9253 18.6441C16.9201 18.75 15.6569 18.75 14.0529 18.75H12.75V21.25H16C16.4142 21.25 16.75 21.5858 16.75 22C16.75 22.4142 16.4142 22.75 16 22.75H8C7.58579 22.75 7.25 22.4142 7.25 22C7.25 21.5858 7.58579 21.25 8 21.25H11.25V18.75H9.96261C8.35866 18.75 7.09541 18.75 6.09026 18.6441C5.0627 18.5359 4.21884 18.3103 3.49044 17.8007C2.98844 17.4495 2.55178 17.0132 2.20024 16.5115C1.69009 15.7835 1.46428 14.94 1.35594 13.9131C1.24998 12.9086 1.24999 11.6463 1.25 10.0436V9.95637C1.24999 8.35372 1.24998 7.09137 1.35594 6.08691C1.46428 5.05996 1.69009 4.21651 2.20024 3.4885C2.55178 2.98683 2.98844 2.55053 3.49044 2.1993C4.21884 1.68966 5.0627 1.46408 6.09026 1.35585C7.09541 1.24998 8.35867 1.24999 9.96263 1.25Z" fill="#067647"/>
<path fill-rule="evenodd" clip-rule="evenodd" d="M18.0001 1.25C18.4143 1.25 18.7501 1.58579 18.7501 2V2.60253C19.5914 2.75428 20.3447 3.1568 20.9216 3.73028L21.5945 3.2977C21.9429 3.0737 22.407 3.17457 22.631 3.52299C22.855 3.87141 22.7541 4.33545 22.4057 4.55945L21.7678 4.96951C21.9708 5.44014 22.0834 5.95741 22.0834 6.5C22.0834 7.04267 21.9708 7.56002 21.7677 8.0307L22.4053 8.44055C22.7537 8.66455 22.8545 9.12859 22.6305 9.47701C22.4065 9.82543 21.9425 9.9263 21.5941 9.7023L20.9215 9.26988C20.3445 9.84328 19.5913 10.2457 18.7501 10.3975V11C18.7501 11.4142 18.4143 11.75 18.0001 11.75C17.5859 11.75 17.2501 11.4142 17.2501 11V10.3975C16.4089 10.2457 15.6556 9.84328 15.0787 9.26988L14.4061 9.7023C14.0577 9.9263 13.5936 9.82543 13.3696 9.47701C13.1456 9.12859 13.2465 8.66455 13.5949 8.44055L14.2324 8.0307C14.0294 7.56002 13.9168 7.04267 13.9168 6.5C13.9168 5.95741 14.0294 5.44014 14.2324 4.96951L13.5945 4.55945C13.2461 4.33545 13.1452 3.87141 13.3692 3.52299C13.5932 3.17457 14.0573 3.0737 14.4057 3.2977L15.0786 3.73028C15.6555 3.1568 16.4088 2.75428 17.2501 2.60253V2C17.2501 1.58579 17.5859 1.25 18.0001 1.25ZM18.0001 4.03571C17.0922 4.03571 16.3021 4.48088 15.8428 5.14395C15.5725 5.53422 15.4168 5.99953 15.4168 6.5C15.4168 7.00053 15.5725 7.46589 15.8429 7.85619C16.3022 8.51918 17.0923 8.96428 18.0001 8.96428C18.9079 8.96428 19.6979 8.51918 20.1573 7.85619C20.4277 7.46589 20.5834 7.00053 20.5834 6.5C20.5834 5.99953 20.4277 5.53422 20.1574 5.14395C19.6981 4.48088 18.908 4.03571 18.0001 4.03571Z" fill="#067647"/>
<path d="M11 14.25C10.5858 14.25 10.25 14.5858 10.25 15C10.25 15.4142 10.5858 15.75 11 15.75H13C13.4142 15.75 13.75 15.4142 13.75 15C13.75 14.5858 13.4142 14.25 13 14.25H11Z" fill="#067647"/>
</svg>
