<svg width="24" height="24" viewBox="0 0 24 24" fill="none" xmlns="http://www.w3.org/2000/svg">
<path d="M15.4319 7.51035C15.1615 7.8241 15.1966 8.29768 15.5103 8.56811L16.7369 9.6253C16.9366 9.79743 17.0685 9.91226 17.1591 10C17.0685 10.0878 16.9366 10.2026 16.7369 10.3747L15.5103 11.4319C15.1966 11.7023 15.1615 12.1759 15.4319 12.4897C15.7023 12.8034 16.1759 12.8385 16.4897 12.5681L17.7476 11.4839C17.978 11.2853 18.2051 11.0897 18.3682 10.9054C18.5487 10.7015 18.75 10.4046 18.75 10C18.75 9.59545 18.5487 9.2985 18.3682 9.09461C18.205 8.91027 17.978 8.71469 17.7476 8.51613L16.4897 7.43192C16.1759 7.16148 15.7023 7.1966 15.4319 7.51035Z" fill="#067647"/>
<path d="M8.48966 8.56811C8.80341 8.29768 8.83853 7.8241 8.5681 7.51035C8.29767 7.1966 7.82409 7.16148 7.51034 7.43192L6.25243 8.51613C6.02197 8.71469 5.79495 8.91027 5.63178 9.09461C5.4513 9.2985 5.25 9.59545 5.25 10C5.25 10.4046 5.4513 10.7015 5.63178 10.9054C5.79495 11.0898 6.02197 11.2853 6.25243 11.4839L7.51034 12.5681C7.82409 12.8385 8.29767 12.8034 8.5681 12.4897C8.83853 12.1759 8.80341 11.7023 8.48966 11.4319L7.26312 10.3747C7.06342 10.2026 6.93152 10.0878 6.84087 10C6.93152 9.91226 7.06342 9.79743 7.26312 9.6253L8.48966 8.56811Z" fill="#067647"/>
<path d="M13.2371 6.28869C13.6301 6.41968 13.8425 6.84442 13.7115 7.23737L11.7115 13.2374C11.5805 13.6303 11.1557 13.8427 10.7628 13.7117C10.3698 13.5807 10.1575 13.156 10.2884 12.763L12.2884 6.76303C12.4194 6.37008 12.8442 6.15771 13.2371 6.28869Z" fill="#067647"/>
<path fill-rule="evenodd" clip-rule="evenodd" d="M9.9564 1.25H14.0436C15.6463 1.24999 16.9086 1.24998 17.913 1.35586C18.9399 1.4641 19.7833 1.68971 20.5113 2.19945C21.0129 2.55072 21.4493 2.98706 21.8005 3.48872C22.3103 4.21671 22.5359 5.06008 22.6441 6.08697C22.75 7.0914 22.75 8.35371 22.75 9.95637V10.0436C22.75 11.6463 22.75 12.9086 22.6441 13.913C22.5359 14.9399 22.3103 15.7833 21.8005 16.5113C21.4493 17.0129 21.0129 17.4493 20.5113 17.8005C19.7833 18.3103 18.9399 18.5359 17.913 18.6441C16.9343 18.7473 15.7108 18.7499 14.1661 18.75C13.9384 19.558 14.1577 20.4414 14.7672 21.051L14.9663 21.25H17C17.4142 21.25 17.75 21.5858 17.75 22C17.75 22.4142 17.4142 22.75 17 22.75H14.6715C14.661 22.7502 14.6505 22.7502 14.64 22.75H9.01623C9.00574 22.7502 8.99525 22.7502 8.98476 22.75H7C6.58579 22.75 6.25 22.4142 6.25 22C6.25 21.5858 6.58579 21.25 7 21.25H8.69L8.88902 21.051C9.4986 20.4414 9.71785 19.5579 9.49008 18.7499C8.10618 18.749 6.99191 18.7395 6.08697 18.6441C5.06008 18.5359 4.21671 18.3103 3.48872 17.8005C2.98706 17.4493 2.55072 17.0129 2.19945 16.5113C1.68971 15.7833 1.4641 14.9399 1.35586 13.913C1.24998 12.9086 1.24999 11.6463 1.25 10.0436V9.9564C1.24999 8.35373 1.24998 7.0914 1.35586 6.08697C1.4641 5.06008 1.68971 4.21671 2.19945 3.48872C2.55072 2.98706 2.98706 2.55072 3.48872 2.19945C4.21671 1.68971 5.06008 1.4641 6.08697 1.35586C7.0914 1.24998 8.35373 1.24999 9.9564 1.25ZM10.5982 21.25H13.058C12.6378 20.489 12.4875 19.6062 12.6311 18.75H11.0252C11.1688 19.6062 11.0184 20.489 10.5982 21.25ZM9.99904 17.25C8.34371 17.25 7.16068 17.249 6.24421 17.1524C5.34091 17.0572 4.78335 16.8759 4.34909 16.5718C3.99076 16.3209 3.67909 16.0092 3.42818 15.6509C3.1241 15.2166 2.94281 14.6591 2.8476 13.7558C2.75097 12.8391 2.75 11.6558 2.75 10C2.75 8.34417 2.75097 7.16085 2.8476 6.24421C2.94281 5.34091 3.1241 4.78335 3.42818 4.34909C3.67909 3.99076 3.99076 3.67909 4.34909 3.42818C4.78335 3.1241 5.34091 2.94281 6.24421 2.8476C7.16085 2.75097 8.34417 2.75 10 2.75H14C15.6558 2.75 16.8391 2.75097 17.7558 2.8476C18.6591 2.94281 19.2166 3.1241 19.6509 3.42818C20.0092 3.67909 20.3209 3.99076 20.5718 4.34909C20.8759 4.78335 21.0572 5.34091 21.1524 6.24421C21.249 7.16085 21.25 8.34417 21.25 10C21.25 11.6558 21.249 12.8391 21.1524 13.7558C21.0572 14.6591 20.8759 15.2166 20.5718 15.6509C20.3209 16.0092 20.0092 16.3209 19.6509 16.5718C19.2166 16.8759 18.6591 17.0572 17.7558 17.1524C16.8391 17.249 15.6558 17.25 14 17.25H9.99904Z" fill="#067647"/>
</svg>
