<svg width="24" height="24" viewBox="0 0 24 24" fill="none" xmlns="http://www.w3.org/2000/svg">
<path fill-rule="evenodd" clip-rule="evenodd" d="M11.7634 11.713C11.8394 11.738 11.9194 11.751 11.9984 11.751C12.0774 11.751 12.1564 11.738 12.2324 11.713C13.8134 11.192 14.4564 9.61606 14.6984 8.72406C14.8734 8.08106 14.5724 7.40201 13.9664 7.07201L12.8604 6.47001C12.3204 6.17601 11.6754 6.17601 11.1354 6.47001L10.0294 7.07201C9.42336 7.40201 9.12243 8.08099 9.29743 8.72299C9.54043 9.61599 10.1824 11.192 11.7634 11.713ZM11.9984 10.19C11.2704 9.81298 10.9164 8.93605 10.7594 8.38305L11.8534 7.78803C11.9444 7.73903 12.0534 7.73903 12.1444 7.78803L13.2374 8.38305C13.0804 8.93505 12.7264 9.81298 11.9984 10.19Z" fill="#067647"/>
<path fill-rule="evenodd" clip-rule="evenodd" d="M1.34156 9.59199C0.922898 11.7551 2.02099 13.354 2.99337 14.1922C2.34624 15.1618 2.08506 16.4183 2.35115 17.5138C2.66515 18.8058 3.64619 19.7278 5.11419 20.1108C7.21119 20.6568 9.55121 21.2378 10.7592 21.5358L10.7611 21.5362C11.3029 21.6699 11.6306 21.7508 11.9982 21.7508V21.7527C12.3594 21.7527 12.665 21.6778 13.2141 21.5432L13.2362 21.5378C14.4442 21.2398 16.7842 20.6578 18.8812 20.1118C20.3492 19.7278 21.3302 18.8058 21.6442 17.5148C21.9103 16.4192 21.649 15.1626 21.0018 14.1929C21.9741 13.3549 23.0723 11.7557 22.6535 9.59199C22.4595 8.58899 21.5226 7.47997 19.7876 6.19897C18.6166 5.33397 17.1006 4.40296 15.2816 3.42896L15.2767 3.42633C13.8608 2.66799 13.0803 2.25 11.9976 2.25C10.9136 2.25 10.1316 2.66896 8.71358 3.42896C6.89458 4.40296 5.37858 5.33497 4.20758 6.19897C2.47358 7.47997 1.53556 8.58999 1.34156 9.59199ZM4.45095 14.751L19.5435 14.751C20.1031 15.3887 20.3768 16.3766 20.1862 17.1598C20.0032 17.9108 19.4372 18.4148 18.5022 18.6588C16.4142 19.2038 14.0812 19.7828 12.8772 20.0798C12.3822 20.2018 12.1752 20.2508 11.9972 20.2508C11.8192 20.2508 11.6122 20.2018 11.1182 20.0798C9.9132 19.7828 7.5812 19.2028 5.4932 18.6588C4.5582 18.4138 3.99216 17.9098 3.80916 17.1588C3.61867 16.3761 3.89197 15.3888 4.45095 14.751ZM4.22657 13.251L19.7695 13.251C20.2305 12.923 21.5526 11.7959 21.1816 9.87793C21.1006 9.46193 20.3865 7.86298 14.5735 4.75298C13.2905 4.06498 12.7046 3.75195 11.9976 3.75195C11.291 3.75195 10.7054 4.06555 9.42419 4.75159L9.42159 4.75298C3.60859 7.86398 2.89458 9.46293 2.81358 9.87793C2.44258 11.7949 3.76157 12.921 4.22657 13.251Z" fill="#067647"/>
</svg>
