<svg width="24" height="24" viewBox="0 0 24 24" fill="none" xmlns="http://www.w3.org/2000/svg">
<path fill-rule="evenodd" clip-rule="evenodd" d="M15 7.25C14.5858 7.25 14.25 7.58579 14.25 8C14.25 8.41421 14.5858 8.75 15 8.75H18.1893L14.4697 12.4697C14.0152 12.9241 13.7207 13.2169 13.4758 13.4094C13.2443 13.5915 13.135 13.6196 13.0673 13.6257C13.0225 13.6297 12.9775 13.6297 12.9327 13.6257C12.865 13.6196 12.7557 13.5915 12.5242 13.4094C12.2793 13.2169 11.9848 12.9241 11.5303 12.4697L11.4997 12.439C11.0846 12.0239 10.7269 11.6661 10.403 11.4115C10.0578 11.14 9.67576 10.9231 9.20186 10.8804C9.06756 10.8683 8.93244 10.8683 8.79814 10.8804C8.32424 10.9231 7.94218 11.14 7.59698 11.4115C7.27314 11.6661 6.91537 12.0239 6.50033 12.439L3.46967 15.4697C3.17678 15.7626 3.17678 16.2374 3.46967 16.5303C3.76256 16.8232 4.23744 16.8232 4.53033 16.5303L7.53033 13.5303C7.98477 13.0759 8.27929 12.7831 8.52419 12.5906C8.75567 12.4085 8.86504 12.3804 8.93271 12.3743C8.97748 12.3703 9.02252 12.3703 9.06729 12.3743C9.13496 12.3804 9.24433 12.4085 9.47581 12.5906C9.72071 12.7831 10.0152 13.0759 10.4697 13.5303L10.5003 13.561L10.5004 13.561C10.9154 13.9761 11.2731 14.3339 11.597 14.5885C11.9422 14.86 12.3242 15.0769 12.7981 15.1196C12.9324 15.1317 13.0676 15.1317 13.2019 15.1196C13.6758 15.0769 14.0578 14.86 14.403 14.5885C14.7269 14.3339 15.0846 13.9761 15.4996 13.561L15.4996 13.561L19.25 9.81066V13C19.25 13.4142 19.5858 13.75 20 13.75C20.4142 13.75 20.75 13.4142 20.75 13V8C20.75 7.80806 20.6768 7.61612 20.5303 7.46967C20.4584 7.39776 20.3755 7.34351 20.2871 7.30691C20.1987 7.27024 20.1017 7.25 20 7.25H15Z" fill="#067647"/>
</svg>
