<svg width="24" height="18" viewBox="0 0 24 18" fill="none" xmlns="http://www.w3.org/2000/svg">
<path fill-rule="evenodd" clip-rule="evenodd" d="M11.75 0C9.40279 0 7.5 1.90279 7.5 4.25C7.5 6.59721 9.40279 8.5 11.75 8.5C14.0972 8.5 16 6.59721 16 4.25C16 1.90279 14.0972 0 11.75 0ZM9 4.25C9 2.73122 10.2312 1.5 11.75 1.5C13.2688 1.5 14.5 2.73122 14.5 4.25C14.5 5.76878 13.2688 7 11.75 7C10.2312 7 9 5.76878 9 4.25Z" fill="#067647"/>
<path d="M5.25004 2C3.45512 2 2.00004 3.45507 2.00004 5.25C2.00004 7.04493 3.45512 8.5 5.25004 8.5C5.66426 8.5 6.00004 8.16421 6.00004 7.75C6.00004 7.33579 5.66426 7 5.25004 7C4.28355 7 3.50004 6.2165 3.50004 5.25C3.50004 4.2835 4.28355 3.5 5.25004 3.5C5.66426 3.5 6.00004 3.16421 6.00004 2.75C6.00004 2.33579 5.66426 2 5.25004 2Z" fill="#067647"/>
<path d="M5.49699 9.68242C5.45967 9.2699 5.095 8.96573 4.68247 9.00305C3.74394 9.08796 2.83139 9.44902 2.0271 10.0684C1.98076 10.1041 1.91971 10.1485 1.84798 10.2006C1.50729 10.4485 0.925595 10.8717 0.533584 11.3679C0.283102 11.685 0.0488624 12.0999 0.00668953 12.5989C-0.0374772 13.1214 0.137699 13.6291 0.513256 14.0918C1.08811 14.8001 1.87691 15.5 2.976 15.5C3.39021 15.5 3.726 15.1642 3.726 14.75C3.726 14.3358 3.39021 14 2.976 14C2.57649 14 2.17331 13.7569 1.67792 13.1465C1.50575 12.9344 1.49495 12.801 1.50136 12.7252C1.50976 12.6258 1.56264 12.4851 1.71062 12.2977C1.95986 11.9822 2.30925 11.7254 2.64885 11.4758C2.74843 11.4026 2.84716 11.3301 2.94228 11.2568C3.53265 10.8022 4.17731 10.5549 4.81762 10.497C5.23015 10.4596 5.53431 10.095 5.49699 9.68242Z" fill="#067647"/>
<path d="M17.75 2C17.3358 2 17 2.33579 17 2.75C17 3.16421 17.3358 3.5 17.75 3.5C18.7165 3.5 19.5 4.2835 19.5 5.25C19.5 6.2165 18.7165 7 17.75 7C17.3358 7 17 7.33579 17 7.75C17 8.16421 17.3358 8.5 17.75 8.5C19.5449 8.5 21 7.04493 21 5.25C21 3.45507 19.5449 2 17.75 2Z" fill="#067647"/>
<path d="M18.8176 9.00305C18.405 8.96573 18.0404 9.2699 18.003 9.68242C17.9657 10.095 18.2699 10.4596 18.6824 10.497C19.3227 10.5549 19.9674 10.8022 20.5578 11.2568C20.6529 11.3301 20.7516 11.4026 20.8511 11.4758C21.1907 11.7254 21.5402 11.9822 21.7894 12.2977C21.9374 12.4851 21.9903 12.6258 21.9987 12.7252C22.0051 12.801 21.9943 12.9344 21.8221 13.1465C21.3267 13.7569 20.9236 14 20.524 14C20.1098 14 19.774 14.3358 19.774 14.75C19.774 15.1642 20.1098 15.5 20.524 15.5C21.6231 15.5 22.4119 14.8001 22.9868 14.0918C23.3623 13.6291 23.5375 13.1214 23.4934 12.5989C23.4512 12.0999 23.2169 11.685 22.9665 11.3679C22.5744 10.8717 21.9929 10.4486 21.6522 10.2007C21.5804 10.1485 21.5193 10.1041 21.4729 10.0684C20.6687 9.44902 19.7561 9.08796 18.8176 9.00305Z" fill="#067647"/>
<path fill-rule="evenodd" clip-rule="evenodd" d="M7.43951 11.2233C10.0773 9.59224 13.423 9.59224 16.0608 11.2233C16.1385 11.2714 16.237 11.329 16.3501 11.3952C16.8624 11.6949 17.6757 12.1708 18.2306 12.7349C18.5791 13.0891 18.9267 13.5721 18.9901 14.1742C19.0579 14.8183 18.7845 15.4146 18.2629 15.9306C17.4013 16.783 16.334 17.5 14.9345 17.5H8.56577C7.16632 17.5 6.09899 16.783 5.23736 15.9306C4.7158 15.4146 4.4424 14.8183 4.5102 14.1742C4.57357 13.5721 4.92117 13.0891 5.2697 12.7349C5.8246 12.1708 6.63779 11.695 7.15006 11.3952C7.26324 11.329 7.36174 11.2714 7.43951 11.2233ZM15.2719 12.4991C13.1176 11.167 10.3827 11.167 8.22839 12.4991C8.09907 12.5791 7.96041 12.6608 7.81734 12.7452C7.30547 13.047 6.7372 13.3821 6.33898 13.7868C6.09399 14.0359 6.01391 14.2176 6.00196 14.3312C5.99443 14.4027 5.99804 14.5731 6.29233 14.8643C7.02487 15.589 7.73302 16 8.56577 16H14.9345C15.7673 16 16.4754 15.589 17.208 14.8643C17.5023 14.5731 17.5059 14.4027 17.4983 14.3312C17.4864 14.2176 17.4063 14.0359 17.1613 13.7868C16.7631 13.3821 16.1949 13.047 15.683 12.7452C15.5399 12.6608 15.4012 12.5791 15.2719 12.4991Z" fill="#067647"/>
</svg>
