<svg width="18" height="18" viewBox="0 0 18 18" fill="none" xmlns="http://www.w3.org/2000/svg">
<path d="M5.20833 8.95833C4.7481 8.95833 4.375 9.33143 4.375 9.79167C4.375 10.2519 4.7481 10.625 5.20833 10.625H5.21581C5.67605 10.625 6.04914 10.2519 6.04914 9.79167C6.04914 9.33143 5.67605 8.95833 5.21581 8.95833H5.20833Z" fill="currentcolor"/>
<path d="M8.53793 8.95833C8.07769 8.95833 7.7046 9.33143 7.7046 9.79167C7.7046 10.2519 8.07769 10.625 8.53793 10.625H8.54541C9.00564 10.625 9.37874 10.2519 9.37874 9.79167C9.37874 9.33143 9.00564 8.95833 8.54541 8.95833H8.53793Z" fill="currentcolor"/>
<path d="M11.8675 8.95833C11.4073 8.95833 11.0342 9.33143 11.0342 9.79167C11.0342 10.2519 11.4073 10.625 11.8675 10.625H11.875C12.3352 10.625 12.7083 10.2519 12.7083 9.79167C12.7083 9.33143 12.3352 8.95833 11.875 8.95833H11.8675Z" fill="currentcolor"/>
<path d="M5.20833 12.2917C4.7481 12.2917 4.375 12.6648 4.375 13.125C4.375 13.5852 4.7481 13.9583 5.20833 13.9583H5.21581C5.67605 13.9583 6.04914 13.5852 6.04914 13.125C6.04914 12.6648 5.67605 12.2917 5.21581 12.2917H5.20833Z" fill="currentcolor"/>
<path d="M8.53793 12.2917C8.07769 12.2917 7.7046 12.6648 7.7046 13.125C7.7046 13.5852 8.07769 13.9583 8.53793 13.9583H8.54541C9.00564 13.9583 9.37874 13.5852 9.37874 13.125C9.37874 12.6648 9.00564 12.2917 8.54541 12.2917H8.53793Z" fill="currentcolor"/>
<path fill-rule="evenodd" clip-rule="evenodd" d="M4.16667 0.625C4.16667 0.279822 3.88684 0 3.54167 0C3.19649 0 2.91667 0.279822 2.91667 0.625V1.15399C2.24604 1.34407 1.68042 1.653 1.20962 2.16197C0.561362 2.86279 0.273208 3.74827 0.135207 4.85792C-1.61926e-05 5.94525 -8.9378e-06 7.33872 1.48596e-07 9.1167V9.6333C-8.9378e-06 11.4113 -1.61926e-05 12.8047 0.135207 13.8921C0.273208 15.0017 0.561362 15.8872 1.20962 16.588C1.86429 17.2958 2.7023 17.6167 3.75107 17.7692C4.7661 17.9167 6.06296 17.9167 7.69937 17.9167H9.38396C11.0204 17.9167 12.3172 17.9167 13.3323 17.7692C14.381 17.6167 15.219 17.2958 15.8737 16.588C16.522 15.8872 16.8101 15.0017 16.9481 13.8921C17.0834 12.8047 17.0833 11.4113 17.0833 9.63328V9.11672C17.0833 7.33874 17.0834 5.94526 16.9481 4.85792C16.8101 3.74827 16.522 2.86279 15.8737 2.16197C15.4029 1.653 14.8373 1.34407 14.1667 1.15399V0.625C14.1667 0.279822 13.8868 0 13.5417 0C13.1965 0 12.9167 0.279822 12.9167 0.625V0.929912C11.9699 0.833309 10.805 0.83332 9.38396 0.833334H7.69937C6.27835 0.83332 5.11338 0.833309 4.16667 0.929912V0.625ZM2.9405 2.4632C3.01505 2.72498 3.25597 2.91667 3.54167 2.91667C3.88684 2.91667 4.16667 2.63684 4.16667 2.29167V2.18715C5.05084 2.08463 6.19364 2.08333 7.75 2.08333H9.33333C10.8897 2.08333 12.0325 2.08463 12.9167 2.18715V2.29167C12.9167 2.63684 13.1965 2.91667 13.5417 2.91667C13.8274 2.91667 14.0683 2.72498 14.1428 2.46321C14.4823 2.59826 14.74 2.77713 14.9561 3.01077C15.3503 3.43699 15.5837 4.02157 15.7068 5.00531C15.68 5.00181 15.6527 5 15.625 5H1.45833C1.4306 5 1.40329 5.00181 1.37651 5.00531C1.4996 4.02157 1.73299 3.43699 2.12724 3.01077C2.34336 2.77713 2.60108 2.59826 2.9405 2.4632ZM1.28344 6.2252C1.25047 7.02763 1.25 7.98862 1.25 9.16104V9.58896C1.25 11.4209 1.25114 12.7366 1.37565 13.7378C1.49851 14.7257 1.73207 15.312 2.12724 15.7392C2.51601 16.1595 3.0394 16.4026 3.93087 16.5322C4.84563 16.6651 6.05156 16.6667 7.75 16.6667H9.33333C11.0318 16.6667 12.2377 16.6651 13.1525 16.5322C14.0439 16.4026 14.5673 16.1595 14.9561 15.7392C15.3513 15.312 15.5848 14.7257 15.7077 13.7378C15.8322 12.7366 15.8333 11.4209 15.8333 9.58896V9.16104C15.8333 7.98862 15.8329 7.02763 15.7999 6.2252C15.7444 6.24134 15.6857 6.25 15.625 6.25H1.45833C1.39763 6.25 1.33894 6.24134 1.28344 6.2252Z" fill="currentcolor"/>
</svg>
