<svg width="24" height="24" viewBox="0 0 24 24" fill="none" xmlns="http://www.w3.org/2000/svg">
<path d="M16 14.25C16.4142 14.25 16.75 13.9142 16.75 13.5C16.75 13.0858 16.4142 12.75 16 12.75H8C7.58579 12.75 7.25 13.0858 7.25 13.5C7.25 13.9142 7.58579 14.25 8 14.25H16Z" fill="#B54708"/>
<path d="M12 9.25C12.4142 9.25 12.75 8.91421 12.75 8.5C12.75 8.08579 12.4142 7.75 12 7.75H8C7.58579 7.75 7.25 8.08579 7.25 8.5C7.25 8.91421 7.58579 9.25 8 9.25H12Z" fill="#B54708"/>
<path fill-rule="evenodd" clip-rule="evenodd" d="M14.0564 1.75H9.94358C8.10583 1.74998 6.65019 1.74997 5.51098 1.90314C4.33856 2.06076 3.38961 2.39288 2.64124 3.14124C1.89288 3.88961 1.56076 4.83856 1.40314 6.01098C1.24997 7.15019 1.24998 8.60582 1.25 10.4436V11.0564C1.24998 12.8942 1.24997 14.3498 1.40314 15.489C1.56076 16.6614 1.89288 17.6104 2.64124 18.3588C3.2938 19.0113 4.16653 19.4182 5.20554 19.6261C5.15328 19.976 5.12848 20.3508 5.17661 20.7076C5.23587 21.1469 5.4178 21.6316 5.86769 21.9667L5.8745 21.9716C6.42468 22.3718 7.05474 22.2687 7.5611 22.1052C8.06411 21.9428 8.68959 21.6378 9.42573 21.2788L9.47858 21.253C9.66498 21.1621 9.84756 21.0714 10.0273 20.982C10.9554 20.5206 11.8084 20.0966 12.722 19.8861C13.0923 19.8018 13.4821 19.7621 14.0084 19.75H14.0564C15.8942 19.75 17.3498 19.75 18.489 19.5969C19.6614 19.4392 20.6104 19.1071 21.3588 18.3588C22.1071 17.6104 22.4392 16.6614 22.5969 15.489C22.75 14.3498 22.75 12.8942 22.75 11.0565V10.4436C22.75 8.60585 22.75 7.15018 22.5969 6.01098C22.4392 4.83856 22.1071 3.88961 21.3588 3.14124C20.6104 2.39288 19.6614 2.06076 18.489 1.90314C17.3498 1.74997 15.8942 1.74998 14.0564 1.75ZM6.97438 18.6322C6.92368 18.8117 6.87395 18.9922 6.82918 19.1709C6.82737 19.1787 6.82544 19.1864 6.82339 19.1941C6.78247 19.3588 6.74591 19.5219 6.71685 19.681C6.65372 20.0267 6.6358 20.3044 6.66315 20.5071C6.68396 20.6614 6.72301 20.7234 6.7478 20.7495C6.78544 20.7524 6.88587 20.747 7.10026 20.6777C7.48912 20.5522 8.01766 20.2965 8.82115 19.9047C8.98311 19.8258 9.14918 19.7429 9.31907 19.6581C10.2444 19.1965 11.2832 18.6781 12.3863 18.4241L12.388 18.4238C12.8927 18.3088 13.3933 18.2633 13.9833 18.2502L13.9916 18.25H14C15.9068 18.25 17.2615 18.2484 18.2892 18.1102C19.2952 17.975 19.8749 17.7213 20.2981 17.2981C20.7213 16.8749 20.975 16.2952 21.1102 15.2892C21.2484 14.2615 21.25 12.9068 21.25 11V10.5C21.25 8.59318 21.2484 7.23851 21.1102 6.21085C20.975 5.20476 20.7213 4.62511 20.2981 4.2019C19.8749 3.77869 19.2952 3.52503 18.2892 3.38976C17.2615 3.25159 15.9068 3.25 14 3.25H10C8.09318 3.25 6.73851 3.25159 5.71085 3.38976C4.70476 3.52503 4.12511 3.77869 3.7019 4.2019C3.27869 4.62511 3.02503 5.20476 2.88976 6.21085C2.75159 7.23851 2.75 8.59318 2.75 10.5V11C2.75 12.9068 2.75159 14.2615 2.88976 15.2892C3.02503 16.2952 3.27869 16.8749 3.7019 17.2981C4.09991 17.6961 4.69415 18.0015 5.54776 18.1648L5.58204 18.044C5.66396 17.7558 5.72847 17.5289 5.76529 17.3493C5.84851 16.9436 6.24491 16.6821 6.65067 16.7653C7.05644 16.8485 7.31792 17.2449 7.23471 17.6507C7.18548 17.8907 7.10155 18.1854 7.02008 18.4713L6.97438 18.6322ZM6.72919 20.7457C6.7296 20.7453 6.73361 20.7459 6.74003 20.7487C6.732 20.7476 6.72879 20.7462 6.72919 20.7457Z" fill="#B54708"/>
</svg>
