<svg width="56" height="56" viewBox="0 0 56 56" fill="none" xmlns="http://www.w3.org/2000/svg">
<path d="M13.4168 31.3333C13.4168 30.6429 13.9765 30.0833 14.6668 30.0833H18.6582C19.3357 30.0833 20.0055 30.2358 20.6149 30.5307L24.0182 32.1773C24.2858 32.3068 24.5831 32.3751 24.886 32.3751H26.6237C28.0193 32.3751 29.282 33.034 30.0711 34.0678L36.9491 31.9547L36.9517 31.9539C38.8358 31.368 40.8534 32.0728 42.0082 33.6719C43.0441 35.1063 42.6438 37.1755 41.0885 38.0729L28.5625 45.3001C27.4709 45.93 26.1768 46.0859 24.9693 45.7276L14.3107 42.5648C13.6489 42.3684 13.2716 41.6727 13.468 41.0109C13.6644 40.349 14.3601 39.9717 15.0219 40.1681L25.6805 43.3309C26.2257 43.4926 26.8114 43.4242 27.3131 43.1347L39.8391 35.9075C40.0746 35.7715 40.1748 35.4033 39.9815 35.1355C39.4367 34.3812 38.5219 34.0832 37.6928 34.3415L37.6881 34.3429L30.9143 36.4241C30.916 36.4725 30.9168 36.5211 30.9168 36.5699C30.9168 37.2218 30.4731 37.755 29.8896 37.9163L25.6547 39.0871C24.6039 39.3777 23.4784 39.2772 22.4974 38.8025L18.8592 37.0422C18.2378 36.7415 17.9778 35.994 18.2785 35.3726C18.5791 34.7512 19.3267 34.4911 19.9481 34.7918L23.5863 36.5521C24.0186 36.7613 24.52 36.8071 24.9885 36.6775L28.2122 35.7862C27.9188 35.2553 27.3346 34.8751 26.6237 34.8751H24.886C24.2084 34.8751 23.5387 34.7226 22.9293 34.4277L19.526 32.7811C19.2584 32.6516 18.9611 32.5833 18.6582 32.5833H14.6668C13.9765 32.5833 13.4168 32.0236 13.4168 31.3333Z" fill="#DBA102"/>
<path fill-rule="evenodd" clip-rule="evenodd" d="M27.5829 11.3333C28.7025 11.3333 29.4525 12.1721 29.8572 12.9915L29.8579 12.993L31.0171 15.3306L31.0268 15.3399C31.0348 15.3471 31.0441 15.3549 31.0545 15.3626C31.0649 15.3703 31.0751 15.3771 31.0846 15.3828L31.0984 15.3906L33.1902 15.741C34.0906 15.8923 35.0701 16.3749 35.4014 17.4141C35.7322 18.4516 35.2151 19.4123 34.5691 20.06L34.5675 20.0615L32.9412 21.7012C32.9356 21.713 32.9281 21.7312 32.9215 21.7544C32.9142 21.7802 32.9108 21.8022 32.9096 21.8168L33.3751 23.8464C33.5852 24.7654 33.6053 26.042 32.6144 26.7704C31.6183 27.5025 30.4048 27.0913 29.5961 26.6097L27.6349 25.4391L27.6225 25.4374C27.6117 25.4362 27.5994 25.4354 27.5862 25.4354C27.573 25.4354 27.5604 25.4362 27.5491 25.4375C27.5417 25.4383 27.5355 25.4393 27.5306 25.4402L25.5719 26.6093C24.7604 27.0947 23.5498 27.4993 22.5551 26.7675C21.5665 26.0402 21.5809 24.7676 21.7925 23.8453L22.2578 21.8168C22.2566 21.8022 22.2532 21.7802 22.2458 21.7544C22.2393 21.7312 22.2318 21.713 22.2261 21.7012L20.5968 20.0585C19.9548 19.4111 19.4398 18.4517 19.7678 17.4163C20.0972 16.3761 21.0761 15.8924 21.9778 15.7409L24.0624 15.3917L24.0743 15.3849C24.0789 15.3821 24.0837 15.3791 24.0885 15.3758C24.0938 15.3723 24.0992 15.3684 24.1047 15.3643C24.1152 15.3565 24.1247 15.3486 24.1329 15.3411L24.1434 15.3311L25.3051 12.9884C25.7129 12.1703 26.4648 11.3333 27.5829 11.3333ZM26.3722 16.4636L27.5425 14.1037C27.5553 14.0781 27.5684 14.0532 27.5807 14.0311C27.5922 14.0522 27.6039 14.0748 27.6159 14.099L27.617 14.1014L28.7885 16.4636C28.9796 16.854 29.2802 17.1586 29.5623 17.3684C29.846 17.5795 30.2244 17.7788 30.6501 17.8504L32.7766 18.2066C32.8087 18.212 32.8383 18.2179 32.8655 18.224C32.8457 18.2463 32.8235 18.27 32.7985 18.295L32.7955 18.298L31.1424 19.9648C30.8161 20.2938 30.6203 20.7062 30.5166 21.0716C30.4126 21.4378 30.364 21.8873 30.463 22.3328L30.9382 24.4044C30.9466 24.4416 30.954 24.4769 30.9603 24.5104C30.9336 24.4958 30.9052 24.4796 30.8764 24.4624L28.8843 23.2734C28.4637 23.0222 27.9892 22.9354 27.5862 22.9354C27.1818 22.9354 26.7103 23.0227 26.2913 23.2685L24.2888 24.4637C24.2604 24.4807 24.2331 24.4964 24.2069 24.5108C24.2133 24.4772 24.2207 24.4417 24.2292 24.4044L24.7025 22.341L24.7044 22.3328C24.8034 21.8873 24.7548 21.4378 24.6508 21.0716C24.5471 20.7062 24.3513 20.2938 24.025 19.9648L22.3719 18.298C22.3459 18.2719 22.3229 18.2471 22.3026 18.2239C22.3295 18.2178 22.3595 18.2118 22.3914 18.2065L24.5172 17.8504L24.5217 17.8496C24.9453 17.7771 25.321 17.5765 25.6016 17.3667C25.8812 17.1576 26.1813 16.8536 26.3722 16.4636Z" fill="#DBA102"/>
</svg>
