<svg width="40" height="40" viewBox="0 0 40 40" fill="none" xmlns="http://www.w3.org/2000/svg">
<path fill-rule="evenodd" clip-rule="evenodd" d="M30.0011 14.5866C29.8621 14.5866 29.7217 14.5626 29.584 14.5147V16.2199C29.584 19.0109 28.3857 21.6662 26.373 23.4953L27.6572 27.3465L29.9556 28.1149C31.6906 28.6883 32.5639 28.9866 33.4072 29.4616C33.4122 29.4641 33.4168 29.467 33.4214 29.4699C33.426 29.4728 33.4305 29.4757 33.4355 29.4782C34.2839 29.9865 35.0324 30.59 35.659 31.2717C36.424 32.11 37.9206 34.63 37.9206 36.6683C37.9206 37.3583 37.3606 37.9183 36.6706 37.9183L36.6689 37.9199C35.9789 37.9199 35.4189 37.3599 35.4189 36.6699C35.4189 35.4566 34.304 33.4999 33.814 32.9632C33.3573 32.4649 32.8006 32.0183 32.1639 31.635C31.5256 31.2783 30.7374 31.0099 29.1657 30.4916L26.9523 29.7517L25.159 31.3233L25.1565 31.3254C22.9331 33.2574 21.7083 34.3216 20.0023 34.3216C18.2956 34.3216 17.069 33.2566 14.8456 31.3233L14.7973 31.2816L13.0506 29.7517L10.8406 30.4899C9.26558 31.0116 8.47562 31.2783 7.83895 31.635C7.20228 32.0183 6.64563 32.4667 6.18563 32.9667C5.69896 33.5 4.58398 35.4583 4.58398 36.6699C4.58398 37.3599 4.02398 37.9199 3.33398 37.9199C2.64398 37.9199 2.08398 37.3599 2.08398 36.6699C2.08398 34.6316 3.57895 32.1132 4.34229 31.2766C4.97062 30.5932 5.71897 29.99 6.5673 29.48C6.5723 29.4775 6.57688 29.4746 6.58146 29.4716C6.58604 29.4687 6.59062 29.4657 6.59562 29.4632C7.43896 28.9882 8.31229 28.6899 10.0506 28.1149L12.3439 27.3483L13.6283 23.4967C11.6174 21.6703 10.4173 19.0131 10.4173 16.2199V14.5164C9.77935 14.7406 9.07438 14.4143 8.83445 13.7783C8.59112 13.1317 8.91781 12.4116 9.56281 12.1683L9.59687 12.1555L9.29029 11.5633C8.22863 9.50665 7.59196 8.27322 8.08196 6.92822C8.60178 5.53537 9.87272 5.12682 11.9764 4.45058L11.9786 4.44987L18.5986 2.36654C19.1186 2.1932 19.4669 2.08984 19.8936 2.08984C20.3202 2.08984 20.667 2.19499 21.187 2.36833L28.242 4.59831C30.092 5.18331 31.3153 5.57152 31.862 6.84652C32.3858 8.04543 31.9274 9.23109 31.1688 11.193L31.1636 11.2065L30.7318 12.3203C31.1825 12.6415 31.3787 13.2369 31.1745 13.7783C30.9861 14.2783 30.5094 14.5882 30.0044 14.5882L30.0011 14.5866ZM15.7613 25.0049L14.7823 27.9432L16.4839 29.4333C18.3872 31.0866 19.259 31.8182 20.0007 31.8182C20.7423 31.8182 21.6156 31.0866 23.5173 29.4333L23.5656 29.3916L25.2189 27.9416L24.2407 25.0057L24.0923 25.0983C22.8273 25.8666 21.4124 26.2516 19.999 26.2516C18.589 26.2516 17.1789 25.87 15.9222 25.105L15.7613 25.0049ZM12.9173 16.2199V13.7412C15.0917 13.2008 17.4977 12.9199 20.0027 12.9199C22.5064 12.9199 24.9104 13.2005 27.084 13.7403V16.2199C27.084 18.7549 25.7639 21.1382 23.6273 22.4416L22.7822 22.9683C21.0672 24.0099 18.9356 24.0099 17.2323 22.9749L16.3656 22.4365C14.2389 21.1382 12.9173 18.7566 12.9173 16.2199ZM28.3727 11.4948L28.8353 10.3016C29.2536 9.2216 29.6853 8.10326 29.5703 7.83659C29.4706 7.60552 28.4688 7.28816 27.4978 6.98057L20.4103 4.73991L20.3863 4.73199C20.2443 4.68517 19.9643 4.59288 19.8919 4.58659C19.8219 4.59326 19.5119 4.69491 19.3786 4.73991L19.3604 4.74658L12.742 6.82992C11.652 7.17992 10.522 7.54333 10.4286 7.79167C10.3177 8.09646 10.8619 9.15365 11.4937 10.3807L11.5053 10.4033L12.0174 11.3925C14.4693 10.7538 17.1845 10.4215 20.0044 10.4215C22.9712 10.4215 25.8223 10.7894 28.3727 11.4948Z" fill="#DBA102"/>
</svg>
