<svg width="20" height="20" viewBox="0 0 20 20" fill="none" xmlns="http://www.w3.org/2000/svg">
<path d="M2.38603 17.2C3.73103 18.5417 5.69187 18.5417 9.59937 18.5417L9.59684 18.5409C13.5035 18.5409 15.4643 18.5409 16.8093 17.1992C17.8002 16.2109 18.046 14.8367 18.1218 12.9409C18.1352 12.5959 17.8668 12.3059 17.5218 12.2917H17.4968C17.1627 12.2917 16.8861 12.5551 16.8727 12.8917C16.7977 14.7734 16.5418 15.7017 15.9268 16.315C14.9485 17.2917 13.161 17.2917 9.59766 17.2917C6.03432 17.2917 4.24603 17.2917 3.2677 16.315C2.28937 15.3384 2.28935 13.555 2.28935 10C2.28935 6.44504 2.28937 4.66089 3.2677 3.68506C4.14687 2.80839 5.63016 2.71421 8.80599 2.70837C9.15182 2.70837 9.43018 2.42756 9.43018 2.08256C9.42934 1.73756 9.15018 1.45837 8.80518 1.45837C5.55934 1.46421 3.65936 1.52922 2.38603 2.80005C1.04103 4.14255 1.04102 6.10087 1.04102 10C1.04102 13.8992 1.04103 15.8567 2.38603 17.2Z" fill="#1B8354"/>
<path fill-rule="evenodd" clip-rule="evenodd" d="M13.3268 12.6391C13.4868 12.6883 13.6352 12.7108 13.776 12.7108C14.3852 12.7108 14.8427 12.2908 15.3936 11.7841L15.3981 11.78C15.5586 11.6327 15.7396 11.4666 15.9477 11.2858L17.4104 10.0158C18.4084 9.14852 18.9577 8.67114 18.9577 7.91328C18.9577 7.15495 18.406 6.67496 17.4035 5.80496L15.9477 4.5408C15.8212 4.43137 15.7045 4.32758 15.5956 4.23069C15.566 4.20436 15.537 4.17855 15.5085 4.15327C14.716 3.44827 14.1435 2.93914 13.3268 3.18664C12.4302 3.4608 12.3519 4.45579 12.3769 5.19079L12.2316 5.18818C11.3696 5.17237 10.4787 5.15604 9.6027 5.29829C6.23104 5.84662 4.37435 8.15327 4.37435 11.7941C4.37435 12.0199 4.49684 12.2283 4.69434 12.3391C4.89184 12.4491 5.13351 12.4449 5.32601 12.3266C5.44851 12.2516 5.57102 12.1758 5.69352 12.0991C6.57936 11.5483 7.41599 11.0283 8.38932 10.7983C9.46432 10.5441 10.6835 10.5758 11.8618 10.6066C11.9158 10.6079 11.97 10.6093 12.0244 10.6107C12.1414 10.6138 12.2594 10.6169 12.3777 10.6191C12.351 11.3566 12.4235 12.3641 13.3268 12.6391ZM14.5477 10.8641C13.9527 11.4116 13.8385 11.4808 13.7102 11.4491C13.6269 11.33 13.6052 10.9575 13.6444 10.3416L13.6454 10.3248C13.6533 10.202 13.6602 10.0957 13.6602 10.0024C13.6602 9.65743 13.3802 9.37743 13.0352 9.37743C12.683 9.37743 12.3294 9.36848 11.9566 9.35903L11.8882 9.35729C10.6318 9.32484 9.33237 9.29128 8.10189 9.58247C7.20605 9.79414 6.4327 10.1933 5.70186 10.6283C6.0302 8.29745 7.40599 6.92161 9.80265 6.53161C10.5693 6.40827 11.4043 6.42326 12.2126 6.43826C12.4818 6.44326 12.7602 6.44827 13.0343 6.44827C13.3793 6.44827 13.6593 6.16827 13.6593 5.82327C13.6593 5.72866 13.6523 5.61994 13.6443 5.49555L13.6436 5.48412C13.6044 4.87079 13.626 4.49912 13.7085 4.37829H13.7193C13.8802 4.37829 14.2352 4.69329 14.6768 5.08662C14.8135 5.20829 14.9627 5.34079 15.1277 5.48412L16.5835 6.74828C17.1868 7.27242 17.7077 7.72496 17.7077 7.91328C17.7077 8.1012 17.1908 8.55046 16.5875 9.0748L15.1277 10.3424C14.9052 10.5358 14.7152 10.71 14.5477 10.8641Z" fill="#1B8354"/>
</svg>
