<svg width="56" height="56" viewBox="0 0 56 56" fill="none" xmlns="http://www.w3.org/2000/svg">
<path fill-rule="evenodd" clip-rule="evenodd" d="M38.4163 21.3333C38.4163 22.0233 38.9763 22.5833 39.6663 22.5833C40.3563 22.5833 40.9163 22.0233 40.9163 21.3333C40.9163 21.0783 41.358 20.1582 42.4246 19.0916C43.4913 18.0266 44.4113 17.5833 44.6663 17.5833C45.3563 17.5833 45.9163 17.0233 45.9163 16.3333C45.9163 15.6433 45.3563 15.0833 44.6663 15.0833C44.4097 15.0833 43.4913 14.6416 42.4246 13.575C41.3596 12.5083 40.9163 11.5883 40.9163 11.3333C40.9163 10.6433 40.3563 10.0833 39.6663 10.0833C38.9763 10.0833 38.4163 10.6433 38.4163 11.3333C38.4163 11.5883 37.9747 12.5083 36.908 13.575C35.8414 14.64 34.9213 15.0833 34.6663 15.0833C33.9763 15.0833 33.4163 15.6433 33.4163 16.3333C33.4163 17.0233 33.9763 17.5833 34.6663 17.5833C34.923 17.5833 35.8414 18.0249 36.908 19.0916C37.973 20.1582 38.4163 21.0783 38.4163 21.3333ZM38.6746 17.325C38.4263 17.075 38.0296 16.7033 37.5496 16.3333C38.0296 15.9633 38.4246 15.5899 38.6746 15.3416C38.9246 15.0932 39.2963 14.6966 39.6663 14.2166C40.0363 14.6966 40.4097 15.0916 40.658 15.3416C40.9064 15.5916 41.303 15.9633 41.783 16.3333C41.303 16.7033 40.908 17.0766 40.658 17.325C40.408 17.5733 40.0363 17.97 39.6663 18.45C39.2963 17.97 38.923 17.575 38.6746 17.325Z" fill="#DBA102"/>
<path fill-rule="evenodd" clip-rule="evenodd" d="M27.9997 44.2499C27.3097 44.2499 26.7497 43.6899 26.7497 42.9999C26.7497 36.1899 19.8097 29.2499 12.9997 29.2499C12.3097 29.2499 11.7497 28.6899 11.7497 27.9999C11.7497 27.3099 12.3097 26.7499 12.9997 26.7499C19.8097 26.7499 26.7497 19.8099 26.7497 12.9999C26.7497 12.3099 27.3097 11.7499 27.9997 11.7499C28.6897 11.7499 29.2497 12.3099 29.2497 12.9999C29.2497 19.8099 36.1897 26.7499 42.9997 26.7499C43.6897 26.7499 44.2497 27.3099 44.2497 27.9999C44.2497 28.6899 43.6897 29.2499 42.9997 29.2499C36.1897 29.2499 29.2497 36.1899 29.2497 42.9999C29.2497 43.6899 28.6897 44.2499 27.9997 44.2499ZM18.6964 27.9999C22.7414 29.7733 26.2247 33.2582 27.9997 37.3032C29.773 33.2582 33.2581 29.7749 37.3031 27.9999C33.2581 26.2266 29.7747 22.7416 27.9997 18.6966C26.2263 22.7416 22.7414 26.2249 18.6964 27.9999Z" fill="#DBA102"/>
<path fill-rule="evenodd" clip-rule="evenodd" d="M15.4998 45.9216C14.8098 45.9216 14.2498 45.3583 14.2498 44.6683C14.1798 43.9 12.1064 41.8267 11.3264 41.75H11.2898C10.6148 41.7317 10.0781 41.18 10.0781 40.5C10.0781 39.82 10.6397 39.2533 11.3264 39.25C12.1064 39.175 14.1748 37.1067 14.2498 36.3267V36.29C14.2681 35.615 14.8198 35.0784 15.4998 35.0784C16.1798 35.0784 16.7498 35.6433 16.7498 36.3333C16.8198 37.1 18.8931 39.175 19.6731 39.25H19.7097C20.3847 39.2683 20.9214 39.82 20.9214 40.5C20.9214 41.18 20.358 41.75 19.6681 41.75C18.9014 41.82 16.8264 43.8933 16.7514 44.6733V44.71C16.7331 45.385 16.1798 45.9216 15.4998 45.9216ZM14.0648 40.5C14.5848 40.92 15.0798 41.415 15.4998 41.935C15.9198 41.415 16.4147 40.92 16.9347 40.5C16.4147 40.08 15.9198 39.585 15.4998 39.065C15.0798 39.585 14.5848 40.08 14.0648 40.5Z" fill="#DBA102"/>
</svg>
