<svg width="56" height="56" viewBox="0 0 56 56" fill="none" xmlns="http://www.w3.org/2000/svg">
<path fill-rule="evenodd" clip-rule="evenodd" d="M27.9993 13.4167C24.0873 13.4167 20.916 16.5881 20.916 20.5001C20.916 24.4121 24.0873 27.5834 27.9993 27.5834C31.9114 27.5834 35.0827 24.4121 35.0827 20.5001C35.0827 16.5881 31.9114 13.4167 27.9993 13.4167ZM23.416 20.5001C23.416 17.9688 25.468 15.9167 27.9993 15.9167C30.5307 15.9167 32.5827 17.9688 32.5827 20.5001C32.5827 23.0314 30.5307 25.0834 27.9993 25.0834C25.468 25.0834 23.416 23.0314 23.416 20.5001Z" fill="#DBA102"/>
<path d="M17.1661 16.7501C14.1745 16.7501 11.7494 19.1752 11.7494 22.1667C11.7494 25.1583 14.1745 27.5834 17.1661 27.5834C17.8564 27.5834 18.4161 27.0238 18.4161 26.3334C18.4161 25.6431 17.8564 25.0834 17.1661 25.0834C15.5553 25.0834 14.2494 23.7776 14.2494 22.1667C14.2494 20.5559 15.5553 19.2501 17.1661 19.2501C17.8564 19.2501 18.4161 18.6904 18.4161 18.0001C18.4161 17.3097 17.8564 16.7501 17.1661 16.7501Z" fill="#DBA102"/>
<path d="M17.5777 29.5541C17.5155 28.8666 16.9077 28.3596 16.2201 28.4218C14.6559 28.5633 13.135 29.1651 11.7945 30.1974C11.7173 30.2568 11.6155 30.3309 11.496 30.4178C10.9282 30.8309 9.95867 31.5362 9.30532 32.3633C8.88785 32.8917 8.49745 33.5833 8.42716 34.4149C8.35355 35.2858 8.64551 36.1319 9.27144 36.9031C10.2295 38.0835 11.5442 39.2501 13.376 39.2501C14.0664 39.2501 14.626 38.6904 14.626 38.0001C14.626 37.3097 14.0664 36.7501 13.376 36.7501C12.7102 36.7501 12.0382 36.3449 11.2126 35.3276C10.9256 34.974 10.9076 34.7518 10.9183 34.6255C10.9323 34.4598 11.0204 34.2252 11.267 33.913C11.6825 33.3871 12.2648 32.9591 12.8308 32.5431C12.9967 32.4212 13.1613 32.3002 13.3198 32.1781C14.3038 31.4204 15.3782 31.0082 16.4454 30.9117C17.1329 30.8495 17.6399 30.2417 17.5777 29.5541Z" fill="#DBA102"/>
<path d="M37.9993 16.7501C37.309 16.7501 36.7493 17.3097 36.7493 18.0001C36.7493 18.6904 37.309 19.2501 37.9993 19.2501C39.6102 19.2501 40.916 20.5559 40.916 22.1667C40.916 23.7776 39.6102 25.0834 37.9993 25.0834C37.309 25.0834 36.7493 25.6431 36.7493 26.3334C36.7493 27.0238 37.309 27.5834 37.9993 27.5834C40.9909 27.5834 43.416 25.1583 43.416 22.1667C43.416 19.1752 40.9909 16.7501 37.9993 16.7501Z" fill="#DBA102"/>
<path d="M39.7786 28.4218C39.0911 28.3596 38.4833 28.8666 38.4211 29.5541C38.3589 30.2417 38.8658 30.8495 39.5534 30.9117C40.6206 31.0082 41.695 31.4204 42.679 32.1781C42.8375 32.3002 43.002 32.4211 43.1679 32.5431C43.7339 32.9591 44.3163 33.3871 44.7317 33.913C44.9784 34.2252 45.0665 34.4598 45.0805 34.6255C45.0912 34.7518 45.0732 34.974 44.7862 35.3276C43.9606 36.3449 43.2886 36.7501 42.6228 36.7501C41.9324 36.7501 41.3728 37.3097 41.3728 38.0001C41.3728 38.6904 41.9324 39.2501 42.6228 39.2501C44.4546 39.2501 45.7692 38.0835 46.7273 36.9031C47.3533 36.1319 47.6452 35.2858 47.5716 34.4149C47.5013 33.5833 47.1109 32.8917 46.6935 32.3633C46.0401 31.5362 45.0708 30.831 44.503 30.418C44.3834 30.331 44.2815 30.2568 44.2043 30.1974C42.8638 29.1651 41.3429 28.5633 39.7786 28.4218Z" fill="#DBA102"/>
<path fill-rule="evenodd" clip-rule="evenodd" d="M20.8152 32.1222C25.2115 29.4038 30.7877 29.4038 35.184 32.1222C35.3136 32.2024 35.4777 32.2984 35.6662 32.4087C36.52 32.9083 37.8755 33.7015 38.8003 34.6415C39.3812 35.232 39.9606 36.0369 40.0662 37.0404C40.1792 38.114 39.7235 39.1077 38.8542 39.9677C37.4182 41.3885 35.6393 42.5834 33.3069 42.5834H22.6923C20.3599 42.5834 18.581 41.3885 17.145 39.9677C16.2757 39.1077 15.82 38.114 15.933 37.0404C16.0386 36.0369 16.618 35.232 17.1988 34.6415C18.1237 33.7015 19.479 32.9084 20.3328 32.4088C20.5214 32.2984 20.6856 32.2024 20.8152 32.1222ZM33.8692 34.2486C30.2786 32.0284 25.7206 32.0284 22.13 34.2486C21.9145 34.3818 21.6834 34.5181 21.4449 34.6587C20.5918 35.1617 19.6447 35.7202 18.981 36.3948C18.5727 36.8099 18.4392 37.1128 18.4193 37.3021C18.4067 37.4213 18.4127 37.7053 18.9032 38.1905C20.1241 39.3984 21.3044 40.0834 22.6923 40.0834H33.3069C34.6948 40.0834 35.8751 39.3984 37.096 38.1905C37.5864 37.7053 37.5925 37.4213 37.5799 37.3021C37.56 37.1128 37.4265 36.8099 37.0182 36.3948C36.3545 35.7202 35.4075 35.1618 34.5543 34.6587C34.3159 34.5181 34.0847 34.3818 33.8692 34.2486Z" fill="#DBA102"/>
</svg>
